<!DOCTYPE svg PUBLIC "-//W3C//DTD SVG 1.1//EN" "http://www.w3.org/Graphics/SVG/1.1/DTD/svg11.dtd">
<!-- Uploaded to: SVG Find, www.svgrepo.com, Transformed by: SVG Find Mixer Tools -->
<svg fill="#002e7a" width="800px" height="800px" version="1.1" viewBox="144 144 512 512" xmlns="http://www.w3.org/2000/svg" stroke="#002e7a">
<g id="SVGRepo_bgCarrier" stroke-width="0"/>
<g id="SVGRepo_tracerCarrier" stroke-linecap="round" stroke-linejoin="round"/>
<g id="SVGRepo_iconCarrier"> <path d="m578.29 282.64c13.281 0 25.398 5.4609 34.176 14.25 8.7891 8.7227 14.25 20.852 14.25 34.18v56.941h-106.17c-31.836 0-57.934 26.098-57.934 57.934v12.254c0 31.836 26.098 57.934 57.934 57.934h106.17v56.934c0 13.324-5.4609 25.449-14.215 34.211-8.7578 8.7578-20.887 14.223-34.211 14.223h-303.74c-55.648 0-101.27-45.621-101.27-101.27v-276.45c0-35.961 29.32-65.297 65.277-65.297h279.47c7.2969 0 13.211 5.9141 13.211 13.203 0 7.2969-5.9141 13.211-13.211 13.211h-279.47c-51.051 0-51.141 77.738 0 77.738h339.73zm48.426 120.49v97.891h-106.17c-23.574 0-42.82-19.242-42.82-42.82v-12.254c0-23.574 19.242-42.82 42.82-42.82h106.17zm-74.586 18.02c8.5195 0 16.246 3.4688 21.84 9.0586 5.625 5.5938 9.0859 13.336 9.0859 21.867 0 8.5391-3.4648 16.273-9.0586 21.867s-13.328 9.0586-21.867 9.0586c-8.5312 0-16.273-3.4648-21.867-9.0586l-0.44141-0.47656c-5.3242-5.5586-8.6172-13.098-8.6172-21.391 0-8.5078 3.4688-16.238 9.0586-21.84 5.6289-5.6172 13.359-9.0859 21.867-9.0859zm11.188 19.738c-2.8516-2.8555-6.8086-4.625-11.188-4.625-4.375 0-8.3438 1.7734-11.191 4.6172-2.8438 2.8516-4.6172 6.8203-4.6172 11.191 0 4.2188 1.6406 8.0469 4.3086 10.879l0.32031 0.30469c2.8555 2.8555 6.8203 4.6289 11.18 4.6289 4.3672 0 8.3242-1.7734 11.18-4.6289 2.8555-2.8555 4.6289-6.8125 4.6289-11.18 0-4.3633-1.7734-8.3242-4.625-11.188z" fill-rule="evenodd"/> </g>
</svg>