<?xml version="1.0" encoding="UTF-8"?>
<svg version="1.1" xmlns="http://www.w3.org/2000/svg" width="205" height="205">
<path d="M0 0 C1.1359259 0.00303635 1.1359259 0.00303635 2.2947998 0.00613403 C3.06787476 0.00517731 3.84094971 0.00422058 4.63745117 0.00323486 C6.27502524 0.00255313 7.91260199 0.00440697 9.5501709 0.00857544 C12.06536901 0.01392382 14.58038854 0.00863027 17.09558105 0.00222778 C18.68282103 0.00288857 20.2700609 0.00416973 21.8572998 0.00613403 C22.99322571 0.00309769 22.99322571 0.00309769 24.15209961 0 C29.46109849 0.02399522 29.46109849 0.02399522 30.5760498 1.13894653 C30.67163016 2.58108652 30.69793375 4.02788733 30.69630432 5.47319031 C30.69836632 6.87620895 30.69836632 6.87620895 30.70046997 8.30757141 C30.69507706 9.85907646 30.69507706 9.85907646 30.6895752 11.44192505 C30.68972122 12.52471741 30.68986725 13.60750977 30.6900177 14.72311401 C30.68931804 18.32138027 30.68152314 21.91959551 30.67370605 25.51785278 C30.67184207 28.00507072 30.67041807 30.49228902 30.66941833 32.97950745 C30.6659833 38.86915844 30.65809258 44.75879044 30.64806885 50.64843363 C30.63581227 58.00920027 30.63042771 65.36996918 30.62487793 72.73074341 C30.61413795 85.8668208 30.59705973 99.00288184 30.5760498 112.13894653 C34.2060498 112.13894653 37.8360498 112.13894653 41.5760498 112.13894653 C41.57382919 111.15144913 41.57160858 110.16395172 41.56932068 109.14653015 C41.54908898 99.86095625 41.53407753 90.57538678 41.52423763 81.28979588 C41.51900888 76.51546374 41.51191137 71.74114933 41.50061035 66.96682739 C41.48978121 62.36328392 41.48377291 57.75975754 41.48117256 53.15620232 C41.47931836 51.3958503 41.47569784 49.63549927 41.47031975 47.8751545 C41.46310895 45.41822376 41.46205888 42.96136458 41.46252441 40.50442505 C41.45892914 39.76931198 41.45533386 39.03419891 41.45162964 38.27680969 C41.46199764 33.25299869 41.46199764 33.25299869 42.5760498 32.13894653 C45.15794427 32.03803178 47.71251481 31.99923155 50.2947998 32.00613403 C51.06787476 32.00517731 51.84094971 32.00422058 52.63745117 32.00323486 C54.27502524 32.00255313 55.91260199 32.00440697 57.5501709 32.00857544 C60.06536901 32.01392382 62.58038854 32.00863027 65.09558105 32.00222778 C66.68282103 32.00288857 68.2700609 32.00416973 69.8572998 32.00613403 C70.61458374 32.0041098 71.37186768 32.00208557 72.15209961 32 C77.46109849 32.02399522 77.46109849 32.02399522 78.5760498 33.13894653 C78.67105529 35.6033871 78.70162966 38.0396928 78.6895752 40.50442505 C78.68972122 41.27510315 78.68986725 42.04578125 78.6900177 42.83981323 C78.6893184 45.39918792 78.68152526 47.95849074 78.67370605 50.51785278 C78.67184193 52.28762268 78.670418 54.0573931 78.66941833 55.8271637 C78.66559269 60.49446019 78.65576201 65.16172577 78.64471436 69.82901001 C78.63450124 74.58791689 78.62992093 79.34682874 78.62487793 84.10574341 C78.61413978 93.45015806 78.5970628 102.79454973 78.5760498 112.13894653 C79.2360498 112.13894653 79.8960498 112.13894653 80.5760498 112.13894653 C80.7822998 111.12832153 80.9885498 110.11769653 81.2010498 109.07644653 C82.0660482 105.86494341 83.09160639 104.59076852 85.6072998 102.48269653 C90.72458173 96.71363448 89.46595519 87.97601743 89.4510498 80.70144653 C89.46919293 79.0952941 89.49000069 77.48916943 89.5135498 75.88308716 C89.56518568 71.96802025 89.58049586 68.05433508 89.5760498 64.13894653 C94.68468877 64.11429643 99.7932934 64.09611046 104.90197754 64.08401489 C106.64124148 64.07897449 108.38050117 64.07214223 110.11975098 64.06350708 C112.61430917 64.05142862 115.10881154 64.04571545 117.60339355 64.04129028 C118.38568832 64.036129 119.16798309 64.03096771 119.97398376 64.02565002 C121.84172095 64.02545427 123.70934185 64.07694959 125.5760498 64.13894653 C126.5760498 65.13894653 126.5760498 65.13894653 126.6895752 68.2817688 C126.68941613 69.67297351 126.68372487 71.06418414 126.67370605 72.45535278 C126.67158363 73.55193459 126.67158363 73.55193459 126.66941833 74.67066956 C126.66380389 77.01430286 126.65124902 79.35784193 126.6385498 81.70144653 C126.63353666 83.28673162 126.62897343 84.87201819 126.62487793 86.45730591 C126.61382977 90.35122263 126.59655552 94.24506859 126.5760498 98.13894653 C127.2360498 98.13894653 127.8960498 98.13894653 128.5760498 98.13894653 C130.04870605 99.89675903 130.04870605 99.89675903 131.6385498 102.26394653 C132.16577637 103.02964966 132.69300293 103.79535278 133.23620605 104.58425903 C134.5760498 107.13894653 134.5760498 107.13894653 135.5760498 113.13894653 C142.8360498 113.13894653 150.0960498 113.13894653 157.5760498 113.13894653 C157.9060498 114.12894653 158.2360498 115.11894653 158.5760498 116.13894653 C156.93251765 118.1502621 156.12191468 119.07380585 153.49133301 119.38772583 C152.32090454 119.30131836 152.32090454 119.30131836 151.12683105 119.21316528 C150.27927246 119.15838013 149.43171387 119.10359497 148.55847168 119.04714966 C147.67739746 118.97431763 146.79632324 118.9014856 145.8885498 118.82644653 C144.99587402 118.76521606 144.10319824 118.7039856 143.18347168 118.64089966 C140.97958395 118.48768821 138.77780774 118.3198652 136.5760498 118.13894653 C136.60827637 119.36613403 136.64050293 120.59332153 136.67370605 121.85769653 C136.66156365 129.73985119 132.76643058 135.74528527 127.5057373 141.41238403 C123.31001527 145.16645112 118.19933977 147.59033288 112.5760498 148.13894653 C111.62665527 148.23369263 111.62665527 148.23369263 110.65808105 148.33035278 C102.70174598 148.76689506 95.04884179 146.37138736 88.7010498 141.51394653 C83.3339755 136.37910141 80.68613718 130.26262508 80.01696777 122.95437622 C79.93268524 122.05289856 79.84840271 121.1514209 79.76156616 120.22262573 C79.70034576 119.5350116 79.63912537 118.84739746 79.5760498 118.13894653 C78.96568878 118.14116714 78.35532776 118.14338776 77.72647095 118.14567566 C39.32580451 118.27832083 0.96882878 117.94649807 -37.4239502 117.13894653 C-37.7539502 116.14894653 -38.0839502 115.15894653 -38.4239502 114.13894653 C-37.9289502 113.14894653 -37.9289502 113.14894653 -37.4239502 112.13894653 C-27.1939502 112.13894653 -16.9639502 112.13894653 -6.4239502 112.13894653 C-6.43180542 107.10302246 -6.43180542 107.10302246 -6.43981934 101.96536255 C-6.45635262 90.90122829 -6.46742036 79.83709349 -6.47576237 68.77295017 C-6.48092509 62.06152786 -6.48796732 55.35011722 -6.49938965 48.63870239 C-6.51021584 42.16780917 -6.51622646 35.69692811 -6.51882744 29.22602654 C-6.52068217 26.75115708 -6.5243037 24.27628833 -6.52968025 21.80142403 C-6.53688712 18.34824281 -6.53794129 14.89511252 -6.53747559 11.44192505 C-6.54107086 10.40758835 -6.54466614 9.37325165 -6.54837036 8.30757141 C-6.5469957 7.37222565 -6.54562103 6.43687988 -6.54420471 5.47319031 C-6.5451265 4.65555993 -6.5460483 3.83792955 -6.54699802 2.9955225 C-6.280486 -1.02567657 -3.35119332 0.01514647 0 0 Z M-1.4239502 6.13894653 C-1.4239502 41.11894653 -1.4239502 76.09894653 -1.4239502 112.13894653 C7.4860498 112.13894653 16.3960498 112.13894653 25.5760498 112.13894653 C25.5760498 77.15894653 25.5760498 42.17894653 25.5760498 6.13894653 C16.6660498 6.13894653 7.7560498 6.13894653 -1.4239502 6.13894653 Z M46.5760498 37.13894653 C46.5760498 61.88894653 46.5760498 86.63894653 46.5760498 112.13894653 C55.4860498 112.13894653 64.3960498 112.13894653 73.5760498 112.13894653 C73.5760498 87.38894653 73.5760498 62.63894653 73.5760498 37.13894653 C64.6660498 37.13894653 55.7560498 37.13894653 46.5760498 37.13894653 Z M94.5760498 69.13894653 C94.5760498 77.38894653 94.5760498 85.63894653 94.5760498 94.13894653 C96.8860498 93.47894653 99.1960498 92.81894653 101.5760498 92.13894653 C105.1463623 91.90847778 105.1463623 91.90847778 108.7010498 91.95144653 C109.87925293 91.95789185 111.05745605 91.96433716 112.2713623 91.97097778 C115.5760498 92.13894653 115.5760498 92.13894653 120.5760498 93.13894653 C120.5760498 85.21894653 120.5760498 77.29894653 120.5760498 69.13894653 C111.9960498 69.13894653 103.4160498 69.13894653 94.5760498 69.13894653 Z M100.5760498 98.13894653 C106.0210498 97.64394653 106.0210498 97.64394653 111.5760498 97.13894653 C111.5760498 96.80894653 111.5760498 96.47894653 111.5760498 96.13894653 C106.97395756 95.96194299 104.79234114 96.03080086 100.5760498 98.13894653 Z M111.5760498 97.13894653 C115.5760498 98.13894653 115.5760498 98.13894653 115.5760498 98.13894653 Z M95.3260498 108.76394653 C92.55134197 112.52962146 91.80479333 116.50689006 91.5760498 121.13894653 C93.04205144 126.39930534 95.35029407 129.69937791 99.5760498 133.13894653 C102.74306403 134.47458264 102.74306403 134.47458264 105.5760498 135.13894653 C105.5760498 134.14894653 105.5760498 133.15894653 105.5760498 132.13894653 C104.7716748 131.85019653 103.9672998 131.56144653 103.1385498 131.26394653 C100.5760498 130.13894653 100.5760498 130.13894653 99.5760498 128.13894653 C99.34051033 123.89923595 99.24759094 120.77716351 101.5760498 117.13894653 C100.9160498 116.80894653 100.2560498 116.47894653 99.5760498 116.13894653 C99.20977073 110.64476049 99.20977073 110.64476049 100.8885498 108.32644653 C102.5760498 107.13894653 102.5760498 107.13894653 105.5760498 106.13894653 C105.5760498 105.14894653 105.5760498 104.15894653 105.5760498 103.13894653 C101.59212878 103.13894653 98.44885147 106.50858977 95.3260498 108.76394653 Z M110.5760498 103.13894653 C110.5760498 104.12894653 110.5760498 105.11894653 110.5760498 106.13894653 C111.3597998 106.32457153 112.1435498 106.51019653 112.9510498 106.70144653 C115.5760498 108.13894653 115.5760498 108.13894653 116.9510498 111.45144653 C117.52855527 114.85872875 117.56431248 116.87767969 116.5760498 120.13894653 C114.5960498 120.79894653 112.6160498 121.45894653 110.5760498 122.13894653 C110.5760498 123.78894653 110.5760498 125.43894653 110.5760498 127.13894653 C111.2360498 126.80894653 111.8960498 126.47894653 112.5760498 126.13894653 C112.9060498 125.14894653 113.2360498 124.15894653 113.5760498 123.13894653 C114.8960498 123.13894653 116.2160498 123.13894653 117.5760498 123.13894653 C116.8260498 128.88894653 116.8260498 128.88894653 114.5760498 131.13894653 C112.4510498 131.76394653 112.4510498 131.76394653 110.5760498 132.13894653 C110.5760498 133.12894653 110.5760498 134.11894653 110.5760498 135.13894653 C115.32928822 134.71954314 118.43890951 132.60867763 121.5760498 129.13894653 C124.43323949 124.34624125 125.0133986 120.6702475 124.14245605 115.27957153 C122.82517395 110.30115365 120.27224449 107.34766085 115.9510498 104.76394653 C112.90002108 102.99434133 112.90002108 102.99434133 110.5760498 103.13894653 Z M89.5760498 105.13894653 C90.5760498 107.13894653 90.5760498 107.13894653 90.5760498 107.13894653 Z M126.5760498 106.13894653 C127.5760498 108.13894653 127.5760498 108.13894653 127.5760498 108.13894653 Z M87.5760498 108.13894653 C88.5760498 110.13894653 88.5760498 110.13894653 88.5760498 110.13894653 Z M127.5760498 108.13894653 C128.5760498 110.13894653 128.5760498 110.13894653 128.5760498 110.13894653 Z M128.5760498 110.13894653 C129.5760498 112.13894653 129.5760498 112.13894653 129.5760498 112.13894653 Z M86.5760498 111.13894653 C87.5760498 113.13894653 87.5760498 113.13894653 87.5760498 113.13894653 Z M104.5760498 112.13894653 C103.9160498 113.78894653 103.2560498 115.43894653 102.5760498 117.13894653 C103.5660498 116.80894653 104.5560498 116.47894653 105.5760498 116.13894653 C105.2460498 114.81894653 104.9160498 113.49894653 104.5760498 112.13894653 Z M110.5760498 112.13894653 C110.9060498 113.45894653 111.2360498 114.77894653 111.5760498 116.13894653 C111.5760498 114.81894653 111.5760498 113.49894653 111.5760498 112.13894653 C111.2460498 112.13894653 110.9160498 112.13894653 110.5760498 112.13894653 Z M129.5760498 113.13894653 C129.5760498 117.42894653 129.5760498 121.71894653 129.5760498 126.13894653 C129.9060498 126.13894653 130.2360498 126.13894653 130.5760498 126.13894653 C131.57997956 119.61351253 131.57997956 119.61351253 130.5760498 113.13894653 C130.2460498 113.13894653 129.9160498 113.13894653 129.5760498 113.13894653 Z M85.5760498 114.13894653 C85.5760498 117.76894653 85.5760498 121.39894653 85.5760498 125.13894653 C85.9060498 125.13894653 86.2360498 125.13894653 86.5760498 125.13894653 C86.5760498 121.50894653 86.5760498 117.87894653 86.5760498 114.13894653 C86.2460498 114.13894653 85.9160498 114.13894653 85.5760498 114.13894653 Z M104.5760498 122.13894653 C104.2460498 123.12894653 103.9160498 124.11894653 103.5760498 125.13894653 C104.5660498 125.63394653 104.5660498 125.63394653 105.5760498 126.13894653 C105.2460498 124.81894653 104.9160498 123.49894653 104.5760498 122.13894653 Z M86.5760498 125.13894653 C87.5760498 128.13894653 87.5760498 128.13894653 87.5760498 128.13894653 Z M128.5760498 126.13894653 C129.5760498 128.13894653 129.5760498 128.13894653 129.5760498 128.13894653 Z M87.5760498 128.13894653 C88.5760498 130.13894653 88.5760498 130.13894653 88.5760498 130.13894653 Z M127.5760498 128.13894653 C128.5760498 130.13894653 128.5760498 130.13894653 128.5760498 130.13894653 Z M126.5760498 130.13894653 C127.5760498 132.13894653 127.5760498 132.13894653 127.5760498 132.13894653 Z M112.5760498 140.13894653 C116.5760498 141.13894653 116.5760498 141.13894653 116.5760498 141.13894653 Z M103.5760498 141.13894653 C103.5760498 141.46894653 103.5760498 141.79894653 103.5760498 142.13894653 C106.5460498 142.13894653 109.5160498 142.13894653 112.5760498 142.13894653 C112.5760498 141.80894653 112.5760498 141.47894653 112.5760498 141.13894653 C109.6060498 141.13894653 106.6360498 141.13894653 103.5760498 141.13894653 Z " fill="#FF2500" transform="translate(42.4239501953125,43.861053466796875)"/>
<path d="M0 0 C4.08024942 0.64319203 7.21351036 2.81523118 10.625 5 C11.30377197 5.42933838 11.98254395 5.85867676 12.68188477 6.30102539 C21.75534309 12.06964072 30.73252923 17.98942231 39.72265625 23.88671875 C44.76226654 27.19196174 49.81191874 30.4808467 54.875 33.75 C56.20312958 34.60806582 57.53125458 35.46613874 58.859375 36.32421875 C59.85420898 36.96689697 59.85420898 36.96689697 60.86914062 37.62255859 C73.30485829 45.66132109 85.70494545 53.74741035 98 62 C98.14704292 58.91116157 98.14704292 58.91116157 97 55.75 C95.99648024 51.98680091 95.84193169 48.8726737 96 45 C97.65 45.33 99.3 45.66 101 46 C102.01381752 49.20413074 103.0085308 52.4138903 104 55.625 C104.28617187 56.52863281 104.57234375 57.43226562 104.8671875 58.36328125 C106.29868529 63.0326907 107.39433718 67.05435448 107 72 C102.39964999 73.65325078 97.79743443 74.74126208 93 75.625 C92.31421875 75.7590625 91.6284375 75.893125 90.921875 76.03125 C86.89451207 76.7844591 83.09428772 77.14074114 79 77 C79 75.35 79 73.7 79 72 C84.28 70.68 89.56 69.36 95 68 C85.10837215 61.37356969 75.16482682 54.84070668 65.15722656 48.39111328 C61.60197578 46.0984674 58.05118724 43.79893293 54.5 41.5 C53.07945328 40.58068869 51.65888037 39.66141784 50.23828125 38.7421875 C49.53654785 38.28811523 48.83481445 37.83404297 48.11181641 37.36621094 C46.0266042 36.01721123 43.94107968 34.66869567 41.85546875 33.3203125 C38.33520775 31.044271 34.81628755 28.76616618 31.29785156 26.48730469 C29.6883216 25.44552223 28.07824959 24.40457696 26.46777344 23.36425781 C6.97921774 10.77443389 6.97921774 10.77443389 -1 5 C-0.67 3.35 -0.34 1.7 0 0 Z " fill="#FF2500" transform="translate(53,13)"/>
</svg>
