<!DOCTYPE svg PUBLIC "-//W3C//DTD SVG 1.1//EN" "http://www.w3.org/Graphics/SVG/1.1/DTD/svg11.dtd">
<!-- Uploaded to: SVG Find, www.svgrepo.com, Transformed by: SVG Find Mixer Tools -->
<svg fill="#669c35" width="800px" height="800px" version="1.1" viewBox="144 144 512 512" xmlns="http://www.w3.org/2000/svg">
<g id="SVGRepo_bgCarrier" stroke-width="0"/>
<g id="SVGRepo_tracerCarrier" stroke-linecap="round" stroke-linejoin="round"/>
<g id="SVGRepo_iconCarrier"> <g> <path d="m285.25 506.31h-65.57c-2.0859 0-4.0898 0.82812-5.5664 2.3047-1.4766 1.4766-2.3047 3.4805-2.3047 5.5664v98.363c0 2.0898 0.82812 4.0898 2.3047 5.5664s3.4805 2.3047 5.5664 2.3047h65.57c2.0898 0 4.0898-0.82812 5.5664-2.3047s2.3086-3.4766 2.3047-5.5664v-98.363c0.003906-2.0859-0.82813-4.0898-2.3047-5.5664-1.4766-1.4766-3.4766-2.3047-5.5664-2.3047zm-7.8711 98.363h-49.828v-82.617h49.828z"/> <path d="m383.61 440.74h-65.57c-2.0898 0-4.0898 0.82812-5.5664 2.3047s-2.3086 3.4805-2.3047 5.5664v163.93c-0.003906 2.0898 0.82813 4.0898 2.3047 5.5664s3.4766 2.3047 5.5664 2.3047h65.57c2.0859 0 4.0898-0.82812 5.5664-2.3047s2.3047-3.4766 2.3047-5.5664v-163.93c0-2.0859-0.82812-4.0898-2.3047-5.5664s-3.4805-2.3047-5.5664-2.3047zm-7.8711 163.93h-49.828v-148.18h49.828z"/> <path d="m481.96 375.17h-65.57c-2.0859 0-4.0898 0.82812-5.5664 2.3047-1.4766 1.4766-2.3047 3.4805-2.3047 5.5664v229.5c0 2.0898 0.82812 4.0898 2.3047 5.5664 1.4766 1.4766 3.4805 2.3047 5.5664 2.3047h65.57c2.0898 0 4.0938-0.82812 5.5703-2.3047s2.3047-3.4766 2.3047-5.5664v-229.5c0-2.0859-0.82813-4.0898-2.3047-5.5664-1.4766-1.4766-3.4805-2.3047-5.5703-2.3047zm-7.8711 229.5h-49.824v-213.76h49.828z"/> <path d="m580.32 309.59h-65.57c-2.0859 0-4.0898 0.82812-5.5664 2.3047-1.4766 1.4766-2.3047 3.4805-2.3047 5.5664v295.08c0 2.0898 0.82812 4.0898 2.3047 5.5664 1.4766 1.4766 3.4805 2.3047 5.5664 2.3047h65.57c2.0898 0 4.0898-0.82812 5.5664-2.3047 1.4766-1.4766 2.3086-3.4766 2.3047-5.5664v-295.08c0.003906-2.0859-0.82812-4.0898-2.3047-5.5664-1.4766-1.4766-3.4766-2.3047-5.5664-2.3047zm-7.8711 295.08h-49.828v-279.34h49.828z"/> <path d="m598.31 181.79c-1.8398-1.7812-4.4336-2.5547-6.9492-2.0703l-55.867 10.742c-2.8633 0.58984-5.168 2.707-6 5.5078-0.83203 2.8047-0.054688 5.8359 2.0234 7.8906l17.285 16.652v-0.003907c-90.395 99.52-210.91 166.68-343.1 191.2-4.2031 0.85938-6.9453 4.9336-6.1602 9.1523s4.8047 7.0352 9.0352 6.3281c135.42-25.113 258.89-93.867 351.56-195.75l18.598 17.918 0.003906 0.003907c2.1133 2.0391 5.1914 2.7305 7.9766 1.7891 2.7852-0.9375 4.8164-3.3516 5.2656-6.2578l8.6445-56.234c0.38672-2.5273-0.47656-5.0898-2.3203-6.8633zm-19.578 45.695c-6.3633-6.1367-19.02-18.316-25.352-24.422l29.988-5.7695z"/> </g> </g>
</svg>